<?xml version="1.0" standalone="no"?>
<!DOCTYPE svg PUBLIC "-//W3C//DTD SVG 20010904//EN"
 "http://www.w3.org/TR/2001/REC-SVG-20010904/DTD/svg10.dtd">
<svg version="1.0" xmlns="http://www.w3.org/2000/svg"
 width="307.000000pt" height="307.000000pt" viewBox="0 0 307.000000 307.000000"
 preserveAspectRatio="xMidYMid meet">
<metadata>
Created by potrace 1.14, written by Peter Selinger 2001-2017
</metadata>
<g transform="translate(0.000000,307.000000) scale(0.100000,-0.100000)"
fill="#000000" stroke="none">
<path d="M687 2869 c7 -7 15 -10 18 -7 3 3 -2 9 -12 12 -14 6 -15 5 -6 -5z"/>
<path d="M978 2868 c-6 -16 -68 -19 -68 -4 0 8 -3 8 -8 1 -4 -6 -20 -11 -37
-11 -16 0 -33 5 -37 11 -5 7 -8 7 -8 0 0 -14 -83 -14 -92 0 -5 6 -8 5 -8 -3 0
-7 -12 -12 -27 -12 -46 0 -62 -3 -57 -12 3 -4 0 -8 -5 -8 -6 0 -10 -3 -10 -7
3 -21 -2 -33 -12 -28 -6 4 -5 -2 3 -14 11 -17 11 -25 0 -42 -9 -14 -10 -19 -2
-14 8 5 11 1 8 -11 -2 -11 -10 -18 -17 -16 -7 1 -10 -2 -6 -8 3 -6 11 -8 16
-5 5 4 9 -9 9 -27 0 -47 24 -78 61 -78 17 0 28 -4 25 -8 -3 -5 1 -9 9 -9 8 0
12 4 9 8 -2 4 207 8 466 8 362 0 469 -3 463 -12 -4 -7 0 -6 10 2 13 10 20 11
31 2 10 -9 16 -9 21 -1 6 10 20 10 115 -7 35 -6 66 -10 85 -12 6 -1 3 -6 -5
-11 -13 -8 -12 -10 3 -10 9 0 17 5 17 11 0 5 5 7 10 4 6 -4 7 -11 4 -17 -4 -6
-2 -8 3 -5 17 10 74 -4 66 -16 -4 -6 0 -8 8 -5 19 8 92 -26 82 -37 -5 -4 -3
-5 4 -1 17 9 79 -23 92 -48 10 -18 11 -18 6 -2 -6 20 -6 20 17 0 13 -10 26
-23 30 -29 4 -5 8 -6 8 -2 0 8 14 -2 53 -38 12 -12 30 -24 40 -28 9 -3 17 -14
17 -23 0 -10 3 -15 6 -11 4 3 13 0 20 -8 17 -17 18 -29 2 -19 -7 4 -8 3 -4 -4
4 -6 14 -8 23 -5 12 5 15 2 10 -10 -3 -9 -3 -16 1 -14 4 1 21 -11 37 -27 17
-16 25 -26 19 -23 -6 3 -11 0 -11 -7 0 -8 6 -12 12 -10 7 3 18 -3 26 -12 12
-16 12 -17 -1 -10 -8 4 -6 0 5 -9 11 -9 19 -21 18 -26 -2 -5 2 -9 7 -9 6 0 10
-7 10 -15 0 -8 5 -15 11 -15 8 0 8 -4 0 -14 -9 -11 -9 -16 0 -22 8 -4 9 -3 5
4 -4 7 -3 12 3 12 9 0 27 -40 22 -49 -2 -2 2 -7 9 -11 6 -4 12 -13 14 -21 1
-8 8 -24 14 -36 7 -13 9 -23 5 -23 -4 0 -2 -4 5 -9 8 -5 15 -21 15 -37 1 -16
5 -31 8 -34 13 -9 18 -74 7 -87 -8 -10 -7 -12 6 -7 13 5 16 -1 17 -32 2 -66 6
-105 13 -111 3 -3 1 -13 -6 -20 -7 -9 -8 -17 -2 -21 12 -9 17 -35 6 -28 -5 3
-8 -19 -6 -49 1 -30 -1 -55 -6 -55 -5 0 -7 -7 -4 -15 4 -8 3 -23 -1 -32 -4
-10 -9 -36 -11 -57 -3 -22 -12 -49 -22 -60 -9 -11 -11 -16 -4 -12 12 7 12 4 1
-15 -7 -13 -14 -29 -15 -35 -1 -6 -5 -22 -9 -34 -6 -18 -9 -20 -17 -9 -7 11
-8 9 -4 -5 4 -10 2 -24 -3 -30 -5 -6 -10 -15 -10 -21 -1 -5 -5 -10 -10 -10 -5
0 -13 -4 -18 -9 -5 -5 -3 -6 5 -2 17 10 15 -9 -3 -27 -8 -8 -11 -17 -8 -21 4
-3 -2 -6 -13 -6 -16 0 -17 -2 -4 -10 13 -9 7 -14 -13 -11 -4 0 -6 -2 -5 -6 3
-10 -42 -85 -56 -95 -6 -4 -17 -1 -26 5 -13 11 -13 10 -1 -6 13 -16 8 -24 -48
-78 -34 -33 -66 -57 -71 -54 -5 3 -12 0 -16 -6 -5 -8 -3 -9 7 -4 8 5 2 -4 -13
-19 -19 -19 -33 -26 -45 -22 -10 4 -14 4 -11 0 11 -10 -20 -36 -33 -28 -8 5
-9 3 -4 -6 6 -10 4 -12 -9 -7 -9 4 -15 3 -11 -2 3 -5 -16 -20 -42 -33 -27 -13
-50 -25 -53 -28 -6 -6 -30 -12 -47 -13 -7 0 -13 -4 -13 -8 0 -15 -57 -28 -70
-16 -9 9 -11 9 -8 -3 2 -11 -8 -14 -44 -15 -25 0 -44 -3 -41 -7 2 -5 3 -8 1
-9 -25 -5 -105 -12 -148 -13 -41 -1 -54 2 -52 12 1 8 -2 11 -8 7 -6 -3 -8 -11
-5 -16 4 -5 -4 -7 -17 -5 -13 2 -29 -1 -35 -6 -7 -6 -13 -7 -13 -2 0 5 -27 9
-59 9 -34 0 -57 -4 -54 -9 4 -5 1 -6 -5 -2 -17 10 -102 14 -108 5 -2 -4 -17
-4 -32 0 -23 6 -76 7 -92 1 -3 -1 -9 -1 -15 0 -5 1 -22 2 -38 2 -15 0 -25 3
-23 7 3 3 -4 7 -14 7 -10 0 -16 -4 -14 -8 5 -8 -11 -12 -30 -9 -33 7 -114 7
-111 0 3 -4 -7 -4 -22 0 -16 5 -27 14 -25 20 1 7 -2 10 -8 6 -6 -3 -8 -11 -4
-16 3 -6 -5 -8 -20 -5 -14 3 -28 1 -31 -4 -3 -5 -18 -5 -33 -1 -23 6 -76 7
-92 1 -3 -1 -9 -2 -15 0 -86 16 -127 -11 -129 -86 -1 -33 -6 -51 -16 -56 -12
-5 -12 -7 3 -7 15 -1 17 -8 13 -41 -2 -22 0 -40 5 -40 6 0 8 -4 5 -8 -3 -5 7
-15 22 -22 15 -7 35 -17 46 -22 12 -7 16 -6 11 1 -3 7 2 11 15 11 12 0 19 -4
16 -9 -7 -10 20 -9 30 2 12 12 26 8 18 -5 -6 -10 -4 -10 7 -1 15 15 33 17 25
4 -7 -10 20 -9 30 2 12 12 26 8 18 -5 -6 -10 -4 -10 7 -1 15 15 33 18 25 5 -3
-5 1 -9 9 -9 8 0 12 4 9 9 -8 13 10 10 25 -5 11 -9 13 -9 7 1 -4 7 -2 12 6 12
8 0 20 -6 27 -12 11 -10 13 -10 7 0 -9 15 25 17 41 1 8 -8 17 -7 32 3 18 11
23 11 31 -2 6 -10 10 -11 10 -2 0 6 5 12 11 12 5 0 7 -5 4 -11 -4 -6 2 -5 13
2 17 11 24 10 38 -2 11 -9 15 -9 10 -1 -8 13 6 17 18 5 10 -11 37 -12 30 -2
-8 13 30 11 43 -2 8 -8 17 -7 32 3 18 11 23 11 31 -2 9 -13 10 -13 10 0 0 12
2 12 9 1 5 -8 11 -9 15 -3 3 6 20 10 36 10 26 -1 28 -3 18 -17 -10 -12 -8 -12
8 1 16 14 23 15 34 5 10 -9 11 -9 6 1 -5 8 -1 12 11 12 11 0 25 -6 32 -12 11
-10 13 -10 7 0 -4 6 -3 12 3 12 5 0 12 -6 14 -12 4 -10 6 -10 6 0 1 8 6 10 14
5 18 -11 38 -13 31 -2 -3 5 4 9 16 9 12 0 19 -4 16 -8 -3 -5 1 -9 9 -9 8 0 12
4 9 9 -8 13 10 10 25 -4 11 -10 13 -10 7 0 -4 7 -1 12 8 12 9 0 16 -6 16 -12
0 -10 2 -10 8 -1 4 6 27 12 52 13 73 2 94 5 108 13 7 5 12 3 12 -5 0 -9 3 -9
8 -2 4 6 17 10 30 9 12 -1 22 2 22 7 0 5 4 7 8 4 4 -2 14 -1 22 4 9 5 20 4 29
-3 10 -8 13 -8 8 -1 -4 7 9 16 36 23 45 13 64 12 59 -4 -2 -5 0 -6 5 -2 4 5 9
13 9 18 1 5 2 12 3 15 0 4 8 1 16 -6 9 -7 18 -10 22 -6 3 3 1 6 -5 6 -7 0 -12
5 -12 12 0 6 3 9 6 5 4 -3 19 0 34 8 15 8 30 11 34 8 3 -4 6 -1 6 7 0 10 3 10
15 0 13 -11 14 -10 9 5 -5 13 -4 16 4 11 7 -4 12 -2 12 3 0 6 7 11 15 11 9 0
21 5 28 10 35 30 140 90 148 85 5 -3 6 1 3 9 -4 10 -1 16 7 16 8 0 38 23 67
50 47 46 57 51 53 27 -1 -5 3 -6 8 -2 6 3 7 13 4 22 -4 11 -3 14 5 9 8 -5 10
-1 5 10 -4 11 -3 15 5 10 6 -3 13 3 17 14 4 11 11 18 16 15 5 -4 9 1 9 10 0 8
7 18 15 21 8 3 17 14 20 25 4 11 11 17 16 14 5 -4 9 -1 9 5 0 14 36 61 47 61
4 1 10 3 13 6 3 4 -1 3 -7 -1 -7 -4 -13 -3 -13 2 0 15 26 33 35 24 5 -4 5 1 2
10 -4 10 -2 18 3 18 6 0 9 3 9 8 -3 20 3 23 19 11 15 -12 15 -12 5 1 -16 22
21 104 44 96 13 -5 14 -4 4 8 -10 11 -9 20 1 38 7 13 15 25 18 28 3 3 7 16 8
30 2 14 8 27 13 28 5 2 9 15 9 28 0 13 4 24 10 24 5 0 6 7 3 17 -4 10 -2 14 4
10 6 -4 8 3 5 18 -2 14 0 25 6 25 6 0 8 10 4 22 -4 16 -2 19 9 13 11 -7 11 -5
-1 10 -14 17 -13 18 4 12 16 -6 17 -5 7 7 -9 11 -9 16 0 21 8 6 7 10 -2 16 -8
5 -9 9 -4 9 6 0 11 12 12 28 2 81 10 158 16 170 5 6 4 12 -1 12 -10 0 -8 42 2
59 4 5 2 12 -4 16 -14 9 -13 45 2 45 6 0 3 7 -8 16 -13 11 -14 14 -3 11 9 -3
16 1 16 8 0 8 -7 11 -15 7 -10 -3 -13 -1 -9 5 4 6 3 23 -3 37 -7 19 -6 26 3
26 8 0 9 3 1 8 -20 14 -24 41 -6 45 16 4 16 5 0 6 -11 1 -15 6 -12 16 4 8 1
15 -6 15 -7 0 -10 8 -7 20 3 11 1 20 -3 20 -5 0 -7 9 -5 20 2 11 -1 20 -7 20
-6 0 -9 3 -5 6 3 4 -1 20 -9 36 -9 16 -13 36 -10 44 3 8 2 13 -3 10 -5 -3 -16
13 -25 36 -14 33 -15 43 -4 50 9 6 7 8 -7 6 -15 -2 -20 3 -19 19 0 12 -3 20
-7 17 -5 -2 -13 5 -19 16 -6 11 -8 20 -5 20 3 0 -4 9 -16 21 -11 11 -18 27
-15 35 3 9 1 12 -4 9 -6 -3 -13 2 -17 12 -3 10 -12 21 -19 26 -7 4 -10 15 -7
25 3 9 3 14 -1 10 -4 -4 -22 10 -39 30 -18 20 -40 43 -49 50 -10 7 -18 20 -18
28 0 8 -7 14 -15 14 -18 0 -20 16 -2 24 6 3 3 4 -9 1 -15 -4 -24 2 -34 19 -7
14 -16 24 -20 23 -8 -2 -20 8 -77 63 -15 14 -23 18 -18 10 4 -8 -1 -6 -12 5
-11 11 -19 23 -16 27 2 4 -3 5 -11 2 -9 -3 -16 -1 -16 5 0 6 -5 10 -12 8 -7
-1 -12 3 -13 10 0 6 -4 15 -9 20 -5 5 -6 3 -2 -4 4 -7 2 -13 -3 -13 -6 0 -11
5 -11 10 0 6 -7 10 -16 10 -8 0 -12 4 -9 10 3 6 -1 7 -9 4 -10 -4 -16 -1 -16
7 0 7 -3 10 -6 6 -6 -6 -83 29 -94 42 -6 7 -28 13 -47 14 -7 0 -13 6 -13 13 0
7 -4 16 -10 19 -6 4 -7 -1 -3 -10 5 -16 4 -16 -25 -1 -18 9 -35 17 -39 19 -5
1 -7 5 -6 10 5 12 -15 8 -20 -5 -4 -10 -8 -10 -15 0 -5 8 -12 13 -16 13 -25
-3 -46 0 -42 7 3 5 -1 9 -9 9 -8 0 -11 -5 -8 -10 3 -6 1 -7 -6 -3 -12 8 -28
11 -106 21 -27 3 -56 12 -64 18 -9 7 -12 8 -8 1 4 -7 -6 -11 -28 -12 -22 -1
-35 3 -35 11 0 9 -2 9 -8 -1 -9 -13 -89 -11 -112 3 -9 5 -11 4 -6 -3 4 -7 1
-12 -8 -12 -10 0 -13 6 -10 18 5 14 4 14 -4 2 -6 -8 -30 -15 -54 -16 -24 -1
-37 0 -30 3 6 2 9 9 6 15 -4 6 -9 5 -15 -3 -10 -16 -59 -20 -59 -5 0 7 -3 8
-8 1 -4 -6 -20 -11 -37 -11 -16 0 -33 5 -37 11 -5 7 -8 7 -8 0 0 -6 -9 -11
-19 -12 -15 -1 -18 3 -14 15 5 16 5 16 -8 0 -14 -18 -33 -19 -58 -4 -9 6 -12
5 -7 -2 4 -7 -4 -10 -23 -10 -19 1 -28 5 -24 12 3 6 0 5 -8 -1 -19 -19 -39
-16 -33 5 5 13 4 14 -4 3 -6 -8 -33 -15 -65 -16 -45 -3 -55 -1 -50 11 3 8 3
14 0 14 -3 0 -7 -6 -9 -12z"/>
<path d="M1655 2870 c-3 -5 -1 -10 4 -10 6 0 11 5 11 10 0 6 -2 10 -4 10 -3 0
-8 -4 -11 -10z"/>
<path d="M174 2859 c-4 -6 -19 -9 -36 -5 -18 3 -27 2 -23 -4 3 -6 2 -10 -4
-10 -11 0 -25 -34 -26 -65 -1 -12 -7 -19 -15 -17 -13 2 -13 0 0 -10 17 -14 22
-88 6 -88 -6 0 -5 -5 2 -12 7 -7 12 -18 12 -26 0 -19 29 -41 53 -42 10 0 16
-4 12 -9 -3 -5 -1 -13 5 -16 6 -4 9 -1 8 7 -4 18 108 24 130 6 12 -10 14 -10
8 0 -6 11 5 17 26 13 5 0 7 4 5 11 -1 7 3 12 10 13 6 0 15 4 20 9 5 5 3 6 -5
2 -9 -6 -12 -1 -10 16 2 12 7 28 11 35 4 6 1 14 -5 16 -10 4 -10 6 0 6 7 1 10
6 7 12 -10 16 -12 69 -3 63 11 -7 10 -2 -7 40 -19 44 -43 55 -118 51 -33 -2
-55 0 -52 6 4 5 4 9 1 9 -3 0 -8 -5 -12 -11z"/>
<path d="M2215 2750 c-3 -5 -1 -10 4 -10 6 0 11 5 11 10 0 6 -2 10 -4 10 -3 0
-8 -4 -11 -10z"/>
<path d="M375 2650 c3 -5 8 -10 11 -10 2 0 4 5 4 10 0 6 -5 10 -11 10 -5 0 -7
-4 -4 -10z"/>
<path d="M595 2651 c-3 -5 -2 -12 3 -15 5 -3 9 1 9 9 0 17 -3 19 -12 6z"/>
<path d="M2634 2439 c1 -7 10 -13 19 -15 9 -1 15 2 11 7 -3 5 -9 7 -14 4 -4
-3 -11 0 -13 5 -3 6 -4 5 -3 -1z"/>
<path d="M377 2328 c3 -13 1 -19 -4 -13 -4 6 -30 10 -58 10 -27 0 -53 -4 -57
-10 -5 -7 -8 -7 -8 0 0 6 -14 10 -30 11 -17 1 -30 -2 -30 -5 0 -3 -17 -6 -37
-5 -39 1 -63 -14 -63 -40 0 -9 -5 -16 -11 -16 -8 0 -8 -5 1 -15 10 -12 9 -15
-6 -16 -15 0 -16 -2 -4 -7 8 -4 16 -15 18 -26 2 -13 -1 -16 -10 -10 -10 6 -10
4 1 -9 11 -14 11 -17 0 -17 -12 0 -12 -2 -1 -9 15 -9 15 -17 1 -43 -7 -12 -6
-18 2 -18 8 0 8 -4 -1 -15 -10 -12 -10 -15 1 -16 8 0 5 -4 -6 -9 -13 -6 -15
-9 -5 -9 10 -1 15 -12 15 -35 0 -19 -3 -32 -8 -29 -4 2 -7 -1 -7 -6 0 -6 5
-11 10 -11 6 0 10 -5 10 -11 0 -5 -4 -8 -9 -5 -8 5 -8 -22 -1 -31 7 -8 5 -30
-2 -45 -6 -12 -5 -18 4 -18 9 0 9 -3 -2 -10 -13 -8 -13 -10 -1 -10 11 0 9 -4
-5 -15 -19 -15 -19 -15 1 -8 18 6 18 5 6 -10 -7 -9 -9 -17 -4 -17 11 0 11 -56
0 -66 -4 -4 -1 -14 6 -22 10 -13 9 -14 -3 -7 -13 8 -13 7 -1 -8 11 -14 11 -17
0 -17 -9 0 -10 -3 -4 -8 11 -8 13 -32 3 -48 -4 -6 -4 -14 -1 -18 4 -4 8 -18 9
-32 1 -18 -3 -23 -14 -19 -12 4 -12 2 -4 -8 7 -8 9 -17 5 -20 -3 -4 0 -7 8 -7
11 0 11 -2 -1 -10 -10 -6 -11 -10 -2 -10 6 0 12 -5 12 -11 0 -5 -4 -8 -9 -5
-11 7 -9 -13 2 -31 5 -8 3 -13 -5 -13 -9 0 -9 -3 2 -10 11 -7 11 -10 2 -10 -9
0 -10 -5 -2 -19 7 -14 6 -21 -3 -24 -8 -4 -8 -6 2 -6 11 -1 10 -5 -5 -16 -19
-15 -19 -15 1 -8 18 6 18 5 6 -10 -10 -13 -10 -17 -1 -17 9 0 9 -4 -1 -17 -8
-9 -9 -14 -3 -10 12 7 12 -21 1 -40 -4 -6 -2 -15 4 -19 8 -4 7 -9 -2 -15 -8
-5 -9 -9 -3 -9 11 0 12 -48 1 -66 -3 -6 -3 -14 0 -18 10 -10 10 -95 1 -89 -5
2 -8 -1 -8 -6 0 -6 5 -11 10 -11 6 0 10 -5 10 -11 0 -5 -6 -7 -12 -3 -9 5 -9
2 1 -9 11 -14 11 -17 0 -17 -11 0 -11 -2 1 -10 13 -9 13 -10 0 -10 -13 0 -13
-1 0 -10 11 -7 11 -10 2 -10 -9 0 -10 -5 -3 -18 7 -13 6 -23 -1 -30 -9 -9 -8
-12 3 -13 9 0 6 -4 -6 -9 -17 -7 -17 -9 -3 -9 19 -1 20 -21 3 -33 -6 -5 -4 -8
5 -8 13 0 13 -1 0 -10 -8 -5 -10 -10 -5 -10 6 0 11 -9 12 -20 1 -11 -2 -18 -7
-15 -10 6 -8 -15 3 -32 5 -8 3 -13 -5 -13 -9 0 -9 -3 2 -10 12 -8 12 -10 1
-10 -10 0 -11 -3 -2 -14 8 -10 9 -16 1 -21 -6 -3 -7 -12 -3 -18 10 -16 10 -96
1 -90 -5 2 -8 -1 -8 -6 0 -6 5 -11 10 -11 6 0 10 -5 10 -11 0 -5 -4 -8 -9 -5
-11 7 -9 -13 2 -31 5 -8 3 -13 -5 -13 -9 0 -9 -3 2 -10 11 -7 11 -10 2 -10 -8
0 -10 -5 -5 -12 4 -7 9 -44 10 -83 2 -38 4 -76 5 -82 2 -15 27 -24 70 -25 18
-1 36 -6 40 -12 5 -7 8 -6 8 3 0 11 3 11 15 1 11 -9 19 -9 28 -2 7 6 31 12 54
13 23 2 39 7 37 11 -3 5 -1 14 5 21 5 7 8 25 7 40 -2 15 1 30 6 33 6 4 5 10
-3 15 -11 7 -9 9 6 10 l20 0 -20 9 c-11 5 -14 9 -7 9 9 1 10 6 2 20 -7 15 -6
23 6 35 14 15 14 16 -3 17 -10 0 -13 3 -6 6 9 3 10 10 3 24 -9 15 -7 19 5 19
10 0 13 -5 9 -12 -4 -7 -3 -8 5 -4 14 9 5 26 -13 26 -16 0 -16 31 -1 42 6 5 4
12 -5 18 -12 8 -12 10 -1 10 10 0 11 3 3 13 -9 10 -7 19 4 35 11 17 12 21 1
17 -10 -4 -13 5 -11 42 1 26 5 57 10 67 5 12 4 17 -3 13 -11 -7 -10 34 2 52 3
6 2 11 -3 11 -13 0 -10 33 3 43 6 4 4 11 -5 17 -12 8 -12 10 -1 10 10 0 11 3
3 13 -9 10 -7 19 4 35 11 16 12 22 3 20 -8 -2 -14 8 -14 24 -1 16 4 28 9 28 6
0 5 5 -2 12 -7 7 -8 17 -1 30 7 13 6 18 -3 18 -10 0 -10 2 1 9 9 6 10 11 2 15
-8 5 -8 13 -1 27 8 14 7 19 -2 19 -10 0 -10 2 1 9 11 7 11 9 0 14 -11 4 -11 6
-1 6 10 1 10 6 2 21 -8 15 -8 20 2 20 9 0 9 3 -2 10 -13 9 -13 10 0 10 13 0
13 1 0 10 -11 7 -11 10 -2 10 9 0 10 5 2 19 -12 24 -13 34 -1 27 5 -3 12 1 15
10 3 8 2 12 -3 9 -5 -3 -12 -1 -16 5 -3 5 -1 10 5 10 8 0 8 6 0 20 -8 15 -8
20 2 20 9 0 9 3 -2 10 -13 9 -13 10 0 10 13 0 13 1 0 10 -11 7 -11 10 -2 10
10 0 10 5 2 20 -8 15 -8 20 2 20 9 0 9 3 1 11 -12 12 -6 39 11 51 7 5 3 8 -9
8 -14 0 -16 3 -7 12 6 6 8 17 3 27 -9 17 -8 34 5 65 5 14 4 17 -5 12 -14 -9
-11 15 4 27 6 4 4 11 -5 17 -12 8 -12 10 -1 10 10 0 11 3 3 13 -9 10 -7 19 4
35 11 16 12 22 3 20 -8 -2 -14 8 -14 25 -1 15 3 27 8 27 5 0 4 6 -2 14 -9 11
-9 16 0 21 8 6 7 10 -2 16 -12 7 -12 9 0 9 10 0 11 3 2 14 -9 11 -9 15 1 19
10 4 10 8 -2 16 -13 9 -13 11 -1 11 11 0 12 3 3 12 -7 7 -8 17 -2 29 7 11 7
20 0 24 -5 3 -7 11 -4 19 6 17 90 14 86 -3 -1 -7 2 -10 8 -6 6 3 8 9 6 13 -2
4 33 7 79 7 71 1 82 -1 77 -15 -5 -12 -2 -11 12 3 19 19 41 23 30 6 -4 -8 -1
-8 12 -2 27 14 89 9 111 -8 16 -13 17 -12 5 3 -12 15 -11 16 10 14 13 -1 30
-6 37 -11 9 -5 12 -4 8 2 -8 13 102 11 122 -2 9 -5 12 -4 8 2 -10 16 109 9
130 -8 16 -12 17 -12 6 1 -10 13 -4 15 47 15 44 0 56 -3 49 -11 -7 -8 -6 -15
2 -20 7 -4 9 -3 6 3 -11 18 16 30 66 28 30 -1 52 -7 59 -15 8 -13 9 -12 5 1
-4 13 2 16 35 14 22 -1 43 -7 48 -14 6 -10 8 -10 13 1 7 19 193 17 189 -1 -1
-7 2 -10 8 -6 6 3 8 10 6 14 -3 4 13 7 35 7 30 -1 38 -4 34 -16 -5 -12 -4 -13
6 -2 15 14 59 17 59 3 0 -5 6 -9 13 -8 39 1 58 -4 51 -15 -5 -8 -2 -9 11 -5
20 8 105 -37 105 -55 0 -6 3 -9 6 -5 9 9 44 -25 37 -36 -3 -6 -2 -7 4 -4 10 7
79 -62 75 -75 -1 -5 3 -8 8 -8 10 0 35 -48 32 -62 -1 -5 3 -8 9 -8 6 0 9 -6 6
-14 -3 -8 -1 -16 4 -18 6 -2 11 -20 12 -40 1 -20 5 -34 10 -31 4 2 7 -4 8 -14
0 -10 2 -28 3 -40 2 -13 -2 -23 -8 -23 -8 0 -8 -3 -1 -8 17 -11 12 -47 -5 -44
-10 1 -9 -2 4 -13 11 -8 16 -15 10 -15 -5 0 -9 -14 -10 -31 -1 -39 -25 -110
-34 -104 -4 3 -7 -7 -7 -22 0 -14 -9 -32 -19 -40 -10 -7 -14 -13 -10 -13 5 0
3 -7 -4 -15 -7 -8 -17 -12 -22 -8 -6 3 -9 0 -6 -8 3 -8 -14 -32 -38 -54 -56
-53 -74 -67 -74 -58 0 4 -5 0 -11 -9 -6 -11 -16 -15 -26 -11 -10 4 -14 2 -10
-4 4 -5 -4 -15 -18 -21 -18 -8 -25 -8 -29 1 -2 7 -5 4 -5 -5 -1 -10 -7 -18
-13 -19 -7 0 -21 -2 -31 -4 -13 -2 -17 1 -13 11 3 9 1 12 -4 9 -6 -3 -10 -12
-10 -20 0 -10 -10 -13 -36 -11 -19 1 -37 -1 -40 -6 -3 -4 -10 -8 -15 -8 -6 0
-7 6 -3 13 6 9 4 9 -8 -1 -12 -10 -17 -10 -20 -1 -3 8 -9 9 -18 4 -21 -13
-120 -14 -113 -1 4 6 -1 5 -10 -3 -14 -11 -17 -11 -17 0 0 11 -2 11 -10 -1 -9
-13 -10 -13 -10 0 0 9 -3 11 -8 5 -9 -13 -113 -15 -105 -2 3 5 -4 4 -15 -2
-25 -14 -43 -14 -22 -1 8 5 10 10 4 10 -6 0 -14 -3 -17 -7 -11 -11 -97 -10
-90 0 4 6 1 7 -7 2 -19 -12 -84 -12 -92 0 -5 6 -8 5 -8 -2 0 -7 -5 -13 -11
-13 -5 0 -7 6 -3 13 5 8 2 8 -9 -2 -14 -11 -17 -11 -18 0 -1 8 -1 18 0 22 1 5
-3 6 -8 2 -6 -3 -8 -11 -5 -18 3 -8 -10 -12 -40 -12 -25 -1 -43 2 -41 5 2 3
-5 6 -15 6 -10 0 -16 -4 -14 -8 3 -4 0 -8 -5 -8 -6 0 -11 5 -11 10 0 6 -5 10
-11 10 -5 0 -7 -4 -4 -10 3 -5 0 -8 -7 -5 -7 3 -14 19 -15 35 -1 17 1 29 5 26
4 -3 9 5 9 17 2 17 0 19 -7 7 -6 -10 -9 10 -9 60 -1 93 -2 110 -12 104 -4 -2
-13 2 -21 9 -15 15 -227 13 -226 -3 1 -18 -3 -31 -10 -26 -4 2 -7 -12 -6 -32
0 -20 -4 -43 -10 -51 -8 -11 -8 -13 0 -8 8 5 11 -8 10 -41 -2 -32 -6 -46 -15
-44 -7 1 -10 -2 -6 -8 3 -6 11 -8 16 -5 5 4 9 1 9 -4 0 -6 -6 -11 -12 -11 -10
0 -10 -2 -1 -8 13 -8 13 -69 -1 -91 -7 -10 -5 -12 3 -6 9 5 12 2 9 -11 -2 -11
-10 -18 -17 -16 -7 1 -10 -2 -6 -8 3 -6 11 -8 16 -5 5 4 9 1 9 -4 0 -6 -6 -11
-12 -11 -10 0 -10 -2 0 -8 7 -5 11 -24 9 -50 -2 -23 1 -42 6 -42 5 0 7 -7 3
-15 -3 -8 -2 -14 2 -14 21 3 32 -2 26 -13 -5 -7 -3 -8 7 -2 18 11 39 14 39 6
0 -9 83 -7 98 2 12 7 16 0 13 -18 -1 -5 5 -4 13 4 9 7 16 9 16 6 0 -4 8 -3 17
3 13 7 23 5 36 -7 15 -13 17 -14 12 -1 -6 17 20 20 43 5 7 -4 19 -3 26 3 18
15 28 1 14 -18 -8 -10 -4 -9 10 3 12 11 22 15 22 10 0 -5 5 -2 10 6 8 12 10
12 10 1 0 -10 3 -11 14 -2 10 8 20 6 42 -11 16 -12 23 -15 17 -8 -16 18 -17
38 -1 22 7 -7 17 -8 30 -1 21 11 24 0 6 -21 -7 -8 -3 -6 10 4 12 11 22 15 22
10 0 -5 5 -2 10 6 7 11 10 11 10 2 0 -9 5 -10 19 -2 13 7 22 7 26 0 3 -5 11
-10 16 -10 6 0 8 4 5 8 -3 5 1 9 9 9 8 0 15 -4 15 -9 0 -9 36 -5 46 5 4 4 18
0 30 -8 18 -12 22 -12 18 -2 -7 19 35 15 47 -4 5 -8 9 -9 9 -2 0 6 13 10 33 9
17 -1 38 2 44 7 9 6 13 5 13 -2 0 -11 46 -8 58 4 3 3 16 -4 28 -16 14 -13 24
-17 29 -10 3 7 1 10 -6 9 -6 -2 -13 2 -16 8 -2 6 6 10 19 8 13 -1 23 -3 23 -4
0 -7 47 -5 51 2 3 4 14 3 26 -3 15 -8 19 -8 14 0 -10 15 27 14 43 -1 11 -10
13 -10 7 0 -4 7 -2 13 6 14 22 2 32 5 48 11 8 4 24 8 35 10 11 1 25 6 32 10 6
4 23 8 36 9 14 1 23 6 21 10 -5 7 10 12 29 9 4 0 7 3 7 9 0 5 8 7 18 3 9 -3
14 -3 10 2 -13 14 55 55 70 43 9 -8 11 -7 6 5 -3 10 2 20 15 26 11 7 32 23 46
37 14 14 30 22 37 18 6 -4 8 -3 5 3 -8 13 22 55 34 47 5 -3 8 -1 7 4 -3 9 25
53 55 84 9 10 17 20 17 23 1 20 58 124 65 118 4 -5 5 -2 1 4 -4 7 -1 32 5 55
7 24 12 46 11 51 -1 4 2 7 6 7 5 0 8 10 7 23 -1 12 3 28 9 36 9 12 8 13 -4 6
-9 -5 -7 1 5 15 11 13 14 20 8 16 -9 -5 -13 0 -13 16 0 18 2 20 10 8 6 -9 10
-10 10 -3 0 6 -5 15 -11 18 -7 5 -4 14 8 28 16 19 16 20 1 8 -21 -15 -24 -2
-5 18 10 11 9 12 -1 7 -9 -6 -11 -1 -8 18 3 14 0 28 -5 32 -6 4 -6 11 2 20 8
10 8 14 0 14 -6 0 -11 9 -11 21 0 11 4 18 8 15 5 -3 9 1 9 9 0 8 -5 13 -11 12
-6 -1 -11 10 -10 25 1 15 -3 25 -7 22 -9 -5 -13 17 -9 46 1 8 -2 11 -6 7 -13
-13 -44 76 -32 91 8 9 7 11 -6 6 -11 -4 -16 -1 -16 10 0 9 -4 16 -8 16 -5 0
-15 12 -23 28 -17 32 -25 43 -61 82 -16 15 -28 34 -28 40 0 6 -5 8 -12 4 -8
-5 -9 -2 -4 12 4 10 4 15 0 12 -11 -12 -46 12 -40 27 3 9 0 12 -8 9 -7 -3 -20
2 -29 10 -9 9 -20 16 -26 16 -6 0 -11 4 -11 9 0 5 -8 11 -17 14 -23 7 -76 39
-84 50 -3 5 -9 8 -13 8 -23 -3 -36 0 -31 9 3 6 -1 7 -9 4 -9 -3 -16 -1 -16 6
0 6 -4 9 -8 6 -4 -2 -29 0 -56 6 -38 8 -46 13 -41 26 5 14 4 15 -6 5 -14 -14
-63 -18 -55 -5 3 5 -1 9 -9 9 -8 0 -12 -4 -9 -9 5 -7 -56 0 -65 8 -2 2 -10 -1
-18 -7 -7 -6 -13 -8 -13 -3 0 12 -143 11 -152 -1 -5 -7 -8 -7 -8 0 0 11 -132
11 -149 0 -6 -3 -11 -3 -11 2 0 4 -52 7 -116 5 -81 -2 -120 0 -130 9 -12 10
-15 10 -12 -2 2 -8 -3 -13 -11 -11 -7 1 -58 3 -112 3 -55 0 -97 4 -95 8 3 4
-1 8 -8 8 -9 0 -12 -7 -8 -16 5 -14 3 -14 -11 -2 -9 7 -17 10 -17 5 0 -5 -81
-8 -180 -6 -99 2 -178 6 -176 11 3 4 -1 8 -8 8 -8 0 -12 -5 -10 -11 2 -6 -7
-11 -21 -11 -14 0 -25 5 -25 12 0 6 -4 14 -9 17 -5 4 -7 -4 -4 -16z"/>
<path d="M1868 2303 c7 -3 16 -2 19 1 4 3 -2 6 -13 5 -11 0 -14 -3 -6 -6z"/>
<path d="M2060 2236 c0 -2 8 -10 18 -17 15 -13 16 -12 3 4 -13 16 -21 21 -21
13z"/>
<path d="M916 2032 c-3 -5 1 -9 9 -9 8 0 12 4 9 9 -3 4 -7 8 -9 8 -2 0 -6 -4
-9 -8z"/>
<path d="M1236 2032 c-3 -5 1 -9 9 -9 8 0 12 4 9 9 -3 4 -7 8 -9 8 -2 0 -6 -4
-9 -8z"/>
<path d="M1476 2032 c-3 -5 1 -9 9 -9 8 0 12 4 9 9 -3 4 -7 8 -9 8 -2 0 -6 -4
-9 -8z"/>
<path d="M390 2020 c-9 -6 -10 -10 -3 -10 6 0 15 5 18 10 8 12 4 12 -15 0z"/>
<path d="M1869 1987 c6 -8 7 -18 3 -22 -4 -5 -1 -5 6 -1 10 6 10 11 1 22 -6 8
-14 14 -16 14 -3 0 0 -6 6 -13z"/>
<path d="M749 1825 c0 -11 -3 -14 -6 -7 -2 6 -8 10 -12 8 -4 -3 -26 -6 -49 -7
-23 -2 -38 -7 -35 -13 4 -5 0 -7 -8 -4 -11 4 -15 -6 -17 -41 -4 -62 -6 -74
-16 -90 -6 -10 -5 -12 3 -7 8 5 12 3 10 -5 -10 -75 17 -114 79 -114 26 0 36
-4 34 -14 -3 -12 -1 -12 13 -1 9 8 35 15 58 16 48 3 89 22 80 37 -4 7 1 8 12
3 13 -5 15 -3 8 6 -6 7 -11 53 -12 103 0 50 -5 91 -11 93 -5 2 -10 10 -10 17
0 8 -8 14 -17 14 -10 0 -34 1 -53 1 -19 1 -38 7 -42 13 -5 8 -8 5 -9 -8z"/>
<path d="M2075 1801 c-3 -5 -2 -12 3 -15 5 -3 9 1 9 9 0 17 -3 19 -12 6z"/>
<path d="M595 1741 c-3 -5 -2 -12 3 -15 5 -3 9 1 9 9 0 17 -3 19 -12 6z"/>
<path d="M2135 1601 c-3 -5 -2 -12 3 -15 5 -3 9 1 9 9 0 17 -3 19 -12 6z"/>
<path d="M370 711 c0 -6 4 -13 10 -16 6 -3 7 1 4 9 -7 18 -14 21 -14 7z"/>
<path d="M1995 580 c-3 -5 -1 -10 4 -10 6 0 11 5 11 10 0 6 -2 10 -4 10 -3 0
-8 -4 -11 -10z"/>
<path d="M2520 530 c-9 -6 -10 -10 -3 -10 6 0 15 5 18 10 8 12 4 12 -15 0z"/>
<path d="M1955 251 c-3 -5 -2 -12 3 -15 5 -3 9 1 9 9 0 17 -3 19 -12 6z"/>
<path d="M270 226 c0 -2 8 -10 18 -17 15 -13 16 -12 3 4 -13 16 -21 21 -21 13z"/>
</g>
</svg>
