<svg id="Слой_3" data-name="Слой 3" xmlns="http://www.w3.org/2000/svg" viewBox="0 0 324.25 293"><path d="M418.12,256c0-80.7-65.58-146.36-146.24-146.5H160.7a6.82,6.82,0,0,0-6.82,6.82v16.36a6.82,6.82,0,0,0,6.82,6.82H270.25c65.38,0,119,53.23,117.86,118.59A116.64,116.64,0,0,1,271.62,372.5H160.7a6.82,6.82,0,0,0-6.82,6.82v16.36a6.82,6.82,0,0,0,6.82,6.82H271.88C352.54,402.36,418.12,336.7,418.12,256Z" transform="translate(-93.88 -109.5)" fill="#fff"/><path d="M327.8,253c1.7,32.49-24.89,59.49-57.41,59.49H183.94s-.06,0-.06-.07V289.32a6.83,6.83,0,0,0-6.83-6.82H160.7a6.82,6.82,0,0,0-6.82,6.82v46.36a6.82,6.82,0,0,0,6.82,6.82H271.88a86.49,86.49,0,0,0,0-173H100.7a6.82,6.82,0,0,0-6.82,6.82V395.68a6.82,6.82,0,0,0,6.82,6.82h16.35a6.83,6.83,0,0,0,6.83-6.82V199.57s0-.07.06-.07H271.38A56.57,56.57,0,0,1,327.8,253Z" transform="translate(-93.88 -109.5)" fill="#fff"/><rect width="30" height="30" rx="6.82" fill="#fff"/><rect x="60" y="116" width="30" height="30" rx="6.82" fill="#fff"/></svg>